<svg id="Laag_1" data-name="Laag 1" xmlns="http://www.w3.org/2000/svg" viewBox="0 0 86.38 78.05">
    <defs>
        <style>.cls-1{fill:#fff;}</style>
    </defs>
    <title>icon-light</title>
    <path class="cls-1" d="M136.47,200.77,132.74,202a.76.76,0,0,1-1-.57h0a.75.75,0,0,1,.8-.91Z"
          transform="translate(-50.09 -152.27)"/>
    <path class="cls-1" d="M119.31,215l9.64-8.54a.76.76,0,0,1,1.26.62l-.12,1.95a1,1,0,0,1-.06.25l-6.5,14.87"
          transform="translate(-50.09 -152.27)"/>
    <path class="cls-1" d="M123.53,224.15l-8.9-1.43a.75.75,0,0,1-.47-1.22l5.15-6.5"
          transform="translate(-50.09 -152.27)"/>
    <path class="cls-1"
          d="M121.92,178.77l5.78,13.85a.76.76,0,0,1-1,1L120.15,191a.69.69,0,0,1-.37-.32l-5.29-8.86-5.9-9.9a.76.76,0,0,1,.18-1l6.34-5.11a.75.75,0,0,1,1.16.27l4.13,9,.58,1.41Z"
          transform="translate(-50.09 -152.27)"/>
    <path class="cls-1"
          d="M130.37,198.52l-12.51-4.43a.76.76,0,0,1,.13-1.47l1.06-.17a.7.7,0,0,1,.4.05l10.18,4.09v0l.07,0a.42.42,0,0,0,.12,0l6.09.87-5.15,1A.69.69,0,0,1,130.37,198.52Z"
          transform="translate(-50.09 -152.27)"/>
    <path class="cls-1"
          d="M129.87,200.52a.77.77,0,0,0-.49-.56l-15.15-5.38a5.29,5.29,0,0,1,.4,1.41l4,7.77.19.72.19,6.9a.76.76,0,0,0,1.27.55l9.81-8.68a.77.77,0,0,0,.24-.73Z"
          transform="translate(-50.09 -152.27)"/>
    <path class="cls-1"
          d="M108.52,217.14l-1.12,1.91a.78.78,0,0,1-.94.32l-1-.42-.65-.25a.76.76,0,0,1-.24-1.26l1.85-1.75a.76.76,0,0,1,.87-.12l1,.51A.76.76,0,0,1,108.52,217.14Z"
          transform="translate(-50.09 -152.27)"/>
    <path class="cls-1"
          d="M110.32,230.32,104,226.18a.78.78,0,0,1-.34-.58l-.4-5.32a.76.76,0,0,1,1-.76l2.47,1,.13.07,5.46,3.46a.65.65,0,0,0,.29.11l6,1a.76.76,0,0,1,.19,1.45l-8.48,3.79"
          transform="translate(-50.09 -152.27)"/>
    <path class="cls-1"
          d="M102.44,152.3l-17.92,5.23A.76.76,0,0,0,84.6,159l4.68.84.53.19,16.82,9.83a.77.77,0,0,0,.87-.06l6.76-5.47a.77.77,0,0,0,0-1.14l-11.13-10.71A.75.75,0,0,0,102.44,152.3Z"
          transform="translate(-50.09 -152.27)"/>
    <path class="cls-1"
          d="M106.31,173.15,92.94,186.23a.77.77,0,0,0-.19.78l.81,2.53a.76.76,0,0,0,.59.52L105,192h6.73l5.14-.87a.76.76,0,0,0,.53-1.14l-9.94-16.67A.76.76,0,0,0,106.31,173.15Z"
          transform="translate(-50.09 -152.27)"/>
    <path class="cls-1"
          d="M104.61,170.64,89.1,161.56a.58.58,0,0,0-.25-.09l-11.28-2a.86.86,0,0,1-.21-.07h0l-14.87-7a.74.74,0,0,0-.89.19l-5.87,6.8-1.26,1.44-4.17,4.82a.75.75,0,0,0-.15.72l2.49,8.16a.85.85,0,0,0,.16.28l1.89,2.14a.75.75,0,0,0,.67.25l49.27-6.55"
          transform="translate(-50.09 -152.27)"/>
    <path class="cls-1"
          d="M104.74,172.3l-47.07,6.29a.76.76,0,0,0-.47,1.25l2.2,2.51,2.12,2.4a.55.55,0,0,0,.24.18L69,188.42l1.93.93,3,1.44.07,0,5.52,3.38.07,0,5.64,3a.67.67,0,0,0,.25.08l5.11.74a.75.75,0,0,0,.8-.43l.81-1.73a.78.78,0,0,0,.06-.43l-.66-4.84a.84.84,0,0,1,.29-.74v0l-1.05-3.29a.8.8,0,0,1,.22-.85l13.67-13.44"
          transform="translate(-50.09 -152.27)"/>
</svg>