<svg id="Laag_2" data-name="Laag 2" xmlns="http://www.w3.org/2000/svg" viewBox="0 0 86.38 78.05">
    <title>icon-dark</title>
    <path d="M126.64,77.88l-3.73,1.17a.75.75,0,0,1-1-.56h0a.76.76,0,0,1,.8-.92Z" transform="translate(-40.27 -29.38)"/>
    <path d="M109.48,92.11l9.64-8.55a.76.76,0,0,1,1.26.62l-.12,1.95a1.1,1.1,0,0,1-.06.26l-6.5,14.86"
          transform="translate(-40.27 -29.38)"/>
    <path d="M113.7,101.25l-8.9-1.42a.76.76,0,0,1-.47-1.22l5.15-6.5" transform="translate(-40.27 -29.38)"/>
    <path d="M112.09,55.88l5.78,13.84a.76.76,0,0,1-1,1l-6.57-2.65a.75.75,0,0,1-.37-.31l-5.28-8.87L98.76,49a.76.76,0,0,1,.18-1l6.34-5.12a.75.75,0,0,1,1.16.28l4.13,9,.59,1.41Z"
          transform="translate(-40.27 -29.38)"/>
    <path d="M120.54,75.63,108,71.2a.76.76,0,0,1,.13-1.47l1.06-.17a.68.68,0,0,1,.4,0l10.18,4.1v0h.07a.25.25,0,0,0,.12,0l6.09.87-5.15,1A.91.91,0,0,1,120.54,75.63Z"
          transform="translate(-40.27 -29.38)"/>
    <path d="M120,77.62a.77.77,0,0,0-.49-.56L104.4,71.69a5.59,5.59,0,0,1,.41,1.41l4,7.76.19.72.2,6.91a.76.76,0,0,0,1.26.54l9.81-8.68a.73.73,0,0,0,.24-.72Z"
          transform="translate(-40.27 -29.38)"/>
    <path d="M98.69,94.24l-1.12,1.91a.76.76,0,0,1-.93.32l-1.06-.41-.65-.26a.76.76,0,0,1-.24-1.26l1.85-1.74a.76.76,0,0,1,.87-.12l1,.5A.76.76,0,0,1,98.69,94.24Z"
          transform="translate(-40.27 -29.38)"/>
    <path d="M100.49,107.43l-6.31-4.14a.8.8,0,0,1-.34-.58l-.4-5.32a.77.77,0,0,1,1-.77l2.46,1,.13.07,5.46,3.47a1,1,0,0,0,.29.11l6,1a.76.76,0,0,1,.19,1.44l-8.48,3.8"
          transform="translate(-40.27 -29.38)"/>
    <path d="M92.61,29.41,74.69,34.63a.76.76,0,0,0,.08,1.48l4.68.83.53.2L96.81,47a.76.76,0,0,0,.86-.07l6.76-5.46a.77.77,0,0,0,0-1.14L93.35,29.59A.75.75,0,0,0,92.61,29.41Z"
          transform="translate(-40.27 -29.38)"/>
    <path d="M96.48,50.26,83.11,63.34a.78.78,0,0,0-.19.77l.81,2.54a.78.78,0,0,0,.59.52l10.88,1.9h6.73l5.14-.87a.76.76,0,0,0,.53-1.13L97.66,50.41A.75.75,0,0,0,96.48,50.26Z"
          transform="translate(-40.27 -29.38)"/>
    <path d="M94.78,47.75,79.27,38.66a.92.92,0,0,0-.25-.09l-11.27-2a1.42,1.42,0,0,1-.22-.07l0,0-14.87-7a.76.76,0,0,0-.89.2l-5.87,6.79-1.26,1.44-4.17,4.82a.76.76,0,0,0-.15.72l2.5,8.17a.76.76,0,0,0,.15.28l1.89,2.14a.77.77,0,0,0,.67.25l49.27-6.55"
          transform="translate(-40.27 -29.38)"/>
    <path d="M94.91,49.41,47.84,55.69A.76.76,0,0,0,47.37,57l2.2,2.5,2.12,2.4a.65.65,0,0,0,.24.19l7.24,3.49,1.93.92,3,1.44.07,0,5.52,3.39.07,0,5.64,3a.67.67,0,0,0,.25.08l5.11.74a.77.77,0,0,0,.8-.43L82.37,73a.76.76,0,0,0,.06-.42l-.66-4.85a.85.85,0,0,1,.29-.74h0L81,63.7a.82.82,0,0,1,.22-.86L94.91,49.41"
          transform="translate(-40.27 -29.38)"/>
</svg>