<svg id="Light" xmlns="http://www.w3.org/2000/svg" viewBox="0 0 268.92 95.2"><defs><style>.cls-1{fill:#1e87f0;}</style></defs><title>logo-light</title><path d="M97.89,441q0-6.47,6.94-6.46h36.48q5.7,0,5.7,5.13a9,9,0,0,1-.57,3.27,14.17,14.17,0,0,1-.86,1.95H109.39v16.34H140q5.6,0,5.6,5.13a9.69,9.69,0,0,1-.52,3.28,7.9,7.9,0,0,1-.9,1.95H109.39v17.76h37.05V499.7H97.89Z" transform="translate(-97.89 -424.45)"/><path d="M157.55,434.72a4.61,4.61,0,0,1,1.52-3.8,6.57,6.57,0,0,1,4.28-1.24,10.67,10.67,0,0,1,3.13.43c1,.28,1.58.49,1.9.62v69H157.55Z" transform="translate(-97.89 -424.45)"/><path d="M222.44,496.18c-.51.32-1.3.76-2.38,1.33a24.49,24.49,0,0,1-4,1.62,46.94,46.94,0,0,1-5.6,1.33,39.68,39.68,0,0,1-7,.57,29.72,29.72,0,0,1-9.93-1.62,23,23,0,0,1-8.08-4.8,22.53,22.53,0,0,1-5.46-7.79,26.43,26.43,0,0,1-2-10.59,27.06,27.06,0,0,1,1.94-10.4,23.89,23.89,0,0,1,5.42-8.08,24.38,24.38,0,0,1,8.17-5.22,27.76,27.76,0,0,1,10.31-1.85,27.21,27.21,0,0,1,8.74,1.28,20,20,0,0,1,6.41,3.42,14,14,0,0,1,5.27,11.07,14.41,14.41,0,0,1-1.23,6,10.91,10.91,0,0,1-4.37,4.65,25.86,25.86,0,0,1-8.46,3,68.69,68.69,0,0,1-13.49,1.1c-1.27,0-2.45,0-3.56,0s-2.3-.08-3.56-.14a11.74,11.74,0,0,0,4.7,7.83q3.94,3,11.26,3a26,26,0,0,0,4.56-.38,26.93,26.93,0,0,0,3.75-.95,26.31,26.31,0,0,0,2.85-1.14l1.76-.86Zm-33.35-22.51c1.46.06,2.85.09,4.18.09h4a43.87,43.87,0,0,0,8.46-.66,17.52,17.52,0,0,0,5-1.71,5.37,5.37,0,0,0,2.38-2.38,6.88,6.88,0,0,0,.57-2.75,6,6,0,0,0-2.9-5.42,13.34,13.34,0,0,0-7.17-1.8,14.56,14.56,0,0,0-6.18,1.23,13.5,13.5,0,0,0-4.46,3.28,15,15,0,0,0-2.81,4.7A17.09,17.09,0,0,0,189.09,473.67Z" transform="translate(-97.89 -424.45)"/><path d="M231.18,478a33.34,33.34,0,0,1,1.9-11.74,24,24,0,0,1,5.32-8.55,22.51,22.51,0,0,1,8.26-5.27,30.64,30.64,0,0,1,10.74-1.8,25.59,25.59,0,0,1,10,1.9,24.7,24.7,0,0,1,7.93,5.22,23.66,23.66,0,0,1,5.28,8,28,28,0,0,1,0,20.19,23.33,23.33,0,0,1-12.82,13.11,24.79,24.79,0,0,1-9.64,1.85,21.25,21.25,0,0,1-9.6-2.09,18.65,18.65,0,0,1-6.55-5.13v25H231.18Zm25.46,13.3a14.61,14.61,0,0,0,5.93-1.19,13.81,13.81,0,0,0,4.66-3.28,14.44,14.44,0,0,0,3-4.94,17.69,17.69,0,0,0,1-6.17,17.08,17.08,0,0,0-1-6,14.09,14.09,0,0,0-3-4.84,14.26,14.26,0,0,0-4.66-3.23,14.61,14.61,0,0,0-5.93-1.19,15.12,15.12,0,0,0-5.94,1.14,13.79,13.79,0,0,0-7.7,7.93,18.18,18.18,0,0,0,0,12.4,15.46,15.46,0,0,0,3,4.94,13.28,13.28,0,0,0,4.6,3.28A14.93,14.93,0,0,0,256.64,491.34Z" transform="translate(-97.89 -424.45)"/><path class="cls-1" d="M296.54,426.16a34.86,34.86,0,0,0-5,2.11,53.73,53.73,0,0,0-13.77,3.46c-8.4,3.12-15.24,29.35-11.86,39.22a43.52,43.52,0,0,0,2.65,6.24c-3.7,3-7.72,4.08-13.55,5.34,5.48,2.24,11.36.48,15.79-1.76,2.74,3.64,6,5.64,9.91,5.85,9.87.34,6-8.32,5-10.48s-2.16-1.21-3.2-.17-1.64,1.81-.69,2.77-.95,1.55-1.91,1.47-1.47-.61-2.42-2a1.36,1.36,0,0,1,0-1.82l.4-.35s5.63-5.88,6.5-7,1.55-1.56,3.11-.86,2.51-.44,3.2-1.82,1.14-1.32,4.08,0a2.51,2.51,0,0,1,1.64,2.77s-4.33,15.5-5.89,20.43a56.9,56.9,0,0,1-2.25,6.36c-6.34,1.16-6.49,8.08-6.49,8.08h14.66s6.38-17.12,8.39-17,2.69,7.27,2.77,9.73c-4,2.19-4.11,7.25-4.11,7.25h17.78s-8.72-22.89-5.7-23.35c12.24-1.9,16.34,4.73,16.61,17.48a9.86,9.86,0,0,0-2.35,5.87H345.6s-2.34-20.07-1-20.43,3.75,7.82,5.6,14.53a9.79,9.79,0,0,0-2.37,5.9h15.71c-.27-20.45-4.46-34.79-10.16-44.87l.35.26c1.41-.14,5.65,1.16,7.84,7.83a39.83,39.83,0,0,0,5.25,2.28c.14-3.39-7.82-17-20.06-19.66-12.39-13.87-27.11-14.42-27.11-14.42-3.79-13.61-16.09-11.65-23.1-9.26" transform="translate(-97.89 -424.45)"/><path d="M291.69,457a4.63,4.63,0,0,1,1.52-3.8,6.46,6.46,0,0,1,4.18-1.23,11.53,11.53,0,0,1,3.18.42c1,.29,1.63.5,1.95.62v25.37a12.89,12.89,0,0,0,3,8.93q3,3.31,9.27,3.32,5.79,0,9.12-3.37t3.32-9.93V457a4.63,4.63,0,0,1,1.52-3.8,6.46,6.46,0,0,1,4.18-1.23,11.53,11.53,0,0,1,3.18.42c1,.29,1.63.5,1.95.62v41.61a32.15,32.15,0,0,1-1.8,11.45,19.37,19.37,0,0,1-13.11,12.16,36.43,36.43,0,0,1-10.36,1.38,55.26,55.26,0,0,1-7.12-.43c-2.16-.29-4.07-.62-5.75-1s-3.06-.74-4.13-1.09-1.84-.62-2.28-.81c.5-1.33,1-2.67,1.42-4s.89-2.7,1.33-4c.44.19,1.14.44,2.09.76a33,33,0,0,0,3.42.9c1.33.28,2.83.52,4.51.71a47.82,47.82,0,0,0,5.37.29,25.08,25.08,0,0,0,6.65-.81,11.29,11.29,0,0,0,5-2.8,13,13,0,0,0,3.13-5.28,26.21,26.21,0,0,0,1.1-8.21,12.87,12.87,0,0,1-5.94,4.41,23.06,23.06,0,0,1-8.88,1.67,26.79,26.79,0,0,1-8.46-1.29,18.85,18.85,0,0,1-6.65-3.7,16.81,16.81,0,0,1-4.32-6,20.5,20.5,0,0,1-1.57-8.27Z" transform="translate(-97.89 -424.45)"/></svg>