<svg id="Laag_1" data-name="Laag 1" xmlns="http://www.w3.org/2000/svg" viewBox="0 0 291.71 79.59">
    <defs>
        <style>.cls-1{fill:#fff;}</style>
    </defs>
    <title>logo-light</title>
    <path class="cls-1"
          d="M160.62,191h-7c.79,5.38,5.7,8.79,12,8.79,4.43,0,9.66-.88,13.06-4h.4V199c0,5.47-3.72,9.66-15.44,9.66a21.06,21.06,0,0,1-21-21.46c0-14.25,8.71-23.2,20.91-23.2,8.87,0,17.1,6.34,17.1,16.55C180.65,188.43,174.71,191,160.62,191Zm2-18.06c-5.15,0-8.71,4.2-8.95,9.11l-.08,1.42h4.75c10.06,0,12.35-1.11,12.35-4.12C170.67,175.05,167.51,172.91,162.6,172.91Z"
          transform="translate(-50.09 -150.74)"/>
    <path class="cls-1"
          d="M202.75,208.15c-8.79,0-13.55-4.67-13.55-13.3V150.74h3c5.31,0,7.61,3.08,7.61,7.12v36c0,4.27,2.21,5.62,7.2,5.62h2.85v2.3C209.87,206.33,207.42,208.15,202.75,208.15Z"
          transform="translate(-50.09 -150.74)"/>
    <path class="cls-1"
          d="M230.62,191h-7c.79,5.38,5.7,8.79,12,8.79,4.43,0,9.66-.88,13.07-4h.39V199c0,5.47-3.72,9.66-15.44,9.66a21.07,21.07,0,0,1-21-21.46c0-14.25,8.71-23.2,20.91-23.2,8.87,0,17.11,6.34,17.11,16.55C250.66,188.43,244.72,191,230.62,191Zm2-18.06c-5.15,0-8.71,4.2-8.95,9.11l-.08,1.42h4.75c10.06,0,12.36-1.11,12.36-4.12C240.68,175.05,237.51,172.91,232.6,172.91Z"
          transform="translate(-50.09 -150.74)"/>
    <path class="cls-1"
          d="M280.35,208.7a12.49,12.49,0,0,1-10.77-6.33v18.85h-3.33a7.26,7.26,0,0,1-7.44-7.37V188c0-14.18,6.34-24,21.38-24,11.33,0,19.4,10.29,19.4,21.06C299.59,198.81,292.78,208.7,280.35,208.7Zm-1.82-35.24c-5.86,0-9.11,5.07-9.11,12.44,0,8.55,4.2,13.38,10.53,13.38,5.15,0,8.72-4.59,8.72-11.4C288.67,177.82,285.34,173.46,278.53,173.46Z"
          transform="translate(-50.09 -150.74)"/>
    <path class="cls-1"
          d="M312.58,221.61c-4,0-7.45-2.61-7.45-6.57V213l6-.4c3.88-.23,5.23-1.82,7.53-7.83-5.63-8.48-13.7-29.7-15.13-39.76h5.62a6.2,6.2,0,0,1,6.18,5,92.13,92.13,0,0,0,8.55,24.63c3.49-8,7.37-20.91,8.32-29.62h4.59c3.41,0,5,1.5,5,5,0,4.51-7.44,24-9.42,28.59C324.46,217.26,320.26,221.61,312.58,221.61Z"
          transform="translate(-50.09 -150.74)"/>
    <path class="cls-1" d="M136.47,200.77,132.74,202a.76.76,0,0,1-1-.57h0a.75.75,0,0,1,.8-.91Z"
          transform="translate(-50.09 -150.74)"/>
    <path class="cls-1" d="M119.31,215l9.64-8.54a.76.76,0,0,1,1.26.62l-.12,1.95a1,1,0,0,1-.06.25l-6.5,14.87"
          transform="translate(-50.09 -150.74)"/>
    <path class="cls-1" d="M123.53,224.15l-8.9-1.43a.75.75,0,0,1-.47-1.22l5.15-6.5"
          transform="translate(-50.09 -150.74)"/>
    <path class="cls-1"
          d="M121.92,178.77l5.78,13.85a.76.76,0,0,1-1,1L120.15,191a.69.69,0,0,1-.37-.32l-5.29-8.86-5.9-9.9a.76.76,0,0,1,.18-1l6.34-5.11a.75.75,0,0,1,1.16.27l4.13,9,.58,1.41Z"
          transform="translate(-50.09 -150.74)"/>
    <path class="cls-1"
          d="M130.37,198.52l-12.51-4.43a.76.76,0,0,1,.13-1.47l1.06-.17a.7.7,0,0,1,.4.05l10.18,4.09v0l.07,0a.42.42,0,0,0,.12,0l6.09.87-5.15,1A.69.69,0,0,1,130.37,198.52Z"
          transform="translate(-50.09 -150.74)"/>
    <path class="cls-1"
          d="M129.87,200.52a.77.77,0,0,0-.49-.56l-15.15-5.38a5.29,5.29,0,0,1,.4,1.41l4,7.77.19.72.19,6.9a.76.76,0,0,0,1.27.55l9.81-8.68a.77.77,0,0,0,.24-.73Z"
          transform="translate(-50.09 -150.74)"/>
    <path class="cls-1"
          d="M108.52,217.14l-1.12,1.91a.78.78,0,0,1-.94.32l-1-.42-.65-.25a.76.76,0,0,1-.24-1.26l1.85-1.75a.76.76,0,0,1,.87-.12l1,.51A.76.76,0,0,1,108.52,217.14Z"
          transform="translate(-50.09 -150.74)"/>
    <path class="cls-1"
          d="M110.32,230.32,104,226.18a.78.78,0,0,1-.34-.58l-.4-5.32a.76.76,0,0,1,1-.76l2.47,1,.13.07,5.46,3.46a.65.65,0,0,0,.29.11l6,1a.76.76,0,0,1,.19,1.45l-8.48,3.79"
          transform="translate(-50.09 -150.74)"/>
    <path class="cls-1"
          d="M102.44,152.3l-17.92,5.23A.76.76,0,0,0,84.6,159l4.68.84.53.19,16.82,9.83a.77.77,0,0,0,.87-.06l6.76-5.47a.77.77,0,0,0,0-1.14l-11.13-10.71A.75.75,0,0,0,102.44,152.3Z"
          transform="translate(-50.09 -150.74)"/>
    <path class="cls-1"
          d="M106.31,173.15,92.94,186.23a.77.77,0,0,0-.19.78l.81,2.53a.76.76,0,0,0,.59.52L105,192h6.73l5.14-.87a.76.76,0,0,0,.53-1.14l-9.94-16.67A.76.76,0,0,0,106.31,173.15Z"
          transform="translate(-50.09 -150.74)"/>
    <path class="cls-1"
          d="M104.61,170.64,89.1,161.56a.58.58,0,0,0-.25-.09l-11.28-2a.86.86,0,0,1-.21-.07h0l-14.87-7a.74.74,0,0,0-.89.19l-5.87,6.8-1.26,1.44-4.17,4.82a.75.75,0,0,0-.15.72l2.49,8.16a.85.85,0,0,0,.16.28l1.89,2.14a.75.75,0,0,0,.67.25l49.27-6.55"
          transform="translate(-50.09 -150.74)"/>
    <path class="cls-1"
          d="M104.74,172.3l-47.07,6.29a.76.76,0,0,0-.47,1.25l2.2,2.51,2.12,2.4a.55.55,0,0,0,.24.18L69,188.42l1.93.93,3,1.44.07,0,5.52,3.38.07,0,5.64,3a.67.67,0,0,0,.25.08l5.11.74a.75.75,0,0,0,.8-.43l.81-1.73a.78.78,0,0,0,.06-.43l-.66-4.84a.84.84,0,0,1,.29-.74v0l-1.05-3.29a.8.8,0,0,1,.22-.85l13.67-13.44"
          transform="translate(-50.09 -150.74)"/>
</svg>